<mxfile host="app.diagrams.net" agent="Mozilla/5.0 (X11; Linux x86_64) AppleWebKit/537.36 (KHTML, like Gecko) Chrome/133.0.0.0 Safari/537.36" version="27.2.0">
  <diagram id="C5RBs43oDa-KdzZeNtuy" name="Page-1">
    <mxGraphModel dx="880" dy="938" grid="1" gridSize="10" guides="1" tooltips="1" connect="1" arrows="1" fold="1" page="1" pageScale="1" pageWidth="827" pageHeight="1169" math="0" shadow="0">
      <root>
        <mxCell id="WIyWlLk6GJQsqaUBKTNV-0" />
        <mxCell id="WIyWlLk6GJQsqaUBKTNV-1" parent="WIyWlLk6GJQsqaUBKTNV-0" />
        <mxCell id="gTSn6SpjcyD0k9HgwN98-15" value="" style="edgeStyle=orthogonalEdgeStyle;rounded=0;orthogonalLoop=1;jettySize=auto;html=1;strokeColor=#DDA15E;fontColor=default;fillColor=#BC6C25;labelBackgroundColor=none;" edge="1" parent="WIyWlLk6GJQsqaUBKTNV-1" source="gTSn6SpjcyD0k9HgwN98-16" target="gTSn6SpjcyD0k9HgwN98-18">
          <mxGeometry relative="1" as="geometry" />
        </mxCell>
        <mxCell id="gTSn6SpjcyD0k9HgwN98-16" value="&lt;font style=&quot;font-size: 18px; color: light-dark(rgb(26, 64, 255), rgb(0, 0, 0));&quot;&gt;&lt;b&gt;Start&lt;/b&gt;&lt;/font&gt;" style="rounded=1;whiteSpace=wrap;html=1;labelBackgroundColor=none;fillColor=#BC6C25;strokeColor=#DDA15E;fontColor=#FEFAE0;" vertex="1" parent="WIyWlLk6GJQsqaUBKTNV-1">
          <mxGeometry x="376" y="90" width="75" height="40" as="geometry" />
        </mxCell>
        <mxCell id="gTSn6SpjcyD0k9HgwN98-17" value="" style="edgeStyle=orthogonalEdgeStyle;rounded=0;orthogonalLoop=1;jettySize=auto;html=1;strokeColor=#DDA15E;fontColor=default;fillColor=#BC6C25;labelBackgroundColor=none;" edge="1" parent="WIyWlLk6GJQsqaUBKTNV-1" source="gTSn6SpjcyD0k9HgwN98-18" target="gTSn6SpjcyD0k9HgwN98-24">
          <mxGeometry relative="1" as="geometry" />
        </mxCell>
        <mxCell id="gTSn6SpjcyD0k9HgwN98-18" value="&lt;b style=&quot;color: rgb(0, 0, 0); font-size: 18px;&quot;&gt;Take +ve Interval incr&lt;/b&gt;" style="shape=parallelogram;perimeter=parallelogramPerimeter;whiteSpace=wrap;html=1;fixedSize=1;labelBackgroundColor=none;fillColor=#BC6C25;strokeColor=#DDA15E;fontColor=#FEFAE0;" vertex="1" parent="WIyWlLk6GJQsqaUBKTNV-1">
          <mxGeometry x="271" y="170" width="285" height="40" as="geometry" />
        </mxCell>
        <mxCell id="gTSn6SpjcyD0k9HgwN98-20" value="" style="edgeStyle=orthogonalEdgeStyle;rounded=0;orthogonalLoop=1;jettySize=auto;html=1;strokeColor=#DDA15E;fontColor=default;fillColor=#BC6C25;labelBackgroundColor=none;" edge="1" parent="WIyWlLk6GJQsqaUBKTNV-1" source="gTSn6SpjcyD0k9HgwN98-21" target="gTSn6SpjcyD0k9HgwN98-26">
          <mxGeometry relative="1" as="geometry" />
        </mxCell>
        <mxCell id="gTSn6SpjcyD0k9HgwN98-21" value="&lt;b style=&quot;color: rgb(0, 0, 0); font-size: 18px;&quot;&gt;sum += incr&lt;/b&gt;" style="rounded=0;whiteSpace=wrap;html=1;strokeColor=#DDA15E;fontColor=#FEFAE0;fillColor=#BC6C25;labelBackgroundColor=none;" vertex="1" parent="WIyWlLk6GJQsqaUBKTNV-1">
          <mxGeometry x="272" y="400" width="285" height="40" as="geometry" />
        </mxCell>
        <mxCell id="gTSn6SpjcyD0k9HgwN98-22" value="" style="edgeStyle=orthogonalEdgeStyle;rounded=0;orthogonalLoop=1;jettySize=auto;html=1;strokeColor=#DDA15E;fontColor=default;fillColor=#BC6C25;labelBackgroundColor=none;" edge="1" parent="WIyWlLk6GJQsqaUBKTNV-1" source="gTSn6SpjcyD0k9HgwN98-24" target="gTSn6SpjcyD0k9HgwN98-21">
          <mxGeometry relative="1" as="geometry" />
        </mxCell>
        <mxCell id="gTSn6SpjcyD0k9HgwN98-30" style="edgeStyle=orthogonalEdgeStyle;rounded=0;orthogonalLoop=1;jettySize=auto;html=1;entryX=1;entryY=0.5;entryDx=0;entryDy=0;exitX=1;exitY=0.5;exitDx=0;exitDy=0;labelBackgroundColor=none;strokeColor=#DDA15E;fontColor=default;" edge="1" parent="WIyWlLk6GJQsqaUBKTNV-1" source="gTSn6SpjcyD0k9HgwN98-33" target="gTSn6SpjcyD0k9HgwN98-27">
          <mxGeometry relative="1" as="geometry">
            <mxPoint x="580" y="630" as="targetPoint" />
            <Array as="points">
              <mxPoint x="780" y="300" />
              <mxPoint x="780" y="580" />
            </Array>
          </mxGeometry>
        </mxCell>
        <mxCell id="gTSn6SpjcyD0k9HgwN98-34" value="" style="edgeStyle=orthogonalEdgeStyle;rounded=0;orthogonalLoop=1;jettySize=auto;html=1;labelBackgroundColor=none;strokeColor=#DDA15E;fontColor=default;" edge="1" parent="WIyWlLk6GJQsqaUBKTNV-1" source="gTSn6SpjcyD0k9HgwN98-24" target="gTSn6SpjcyD0k9HgwN98-33">
          <mxGeometry relative="1" as="geometry" />
        </mxCell>
        <mxCell id="gTSn6SpjcyD0k9HgwN98-24" value="&lt;b style=&quot;color: rgb(0, 0, 0); font-size: 18px;&quot;&gt;incr &amp;gt; 1&lt;/b&gt;" style="rhombus;whiteSpace=wrap;html=1;strokeColor=#DDA15E;fontColor=#FEFAE0;fillColor=#BC6C25;labelBackgroundColor=none;" vertex="1" parent="WIyWlLk6GJQsqaUBKTNV-1">
          <mxGeometry x="364" y="250" width="100" height="100" as="geometry" />
        </mxCell>
        <mxCell id="gTSn6SpjcyD0k9HgwN98-25" value="" style="edgeStyle=orthogonalEdgeStyle;rounded=0;orthogonalLoop=1;jettySize=auto;html=1;strokeColor=#DDA15E;fontColor=default;fillColor=#BC6C25;labelBackgroundColor=none;" edge="1" parent="WIyWlLk6GJQsqaUBKTNV-1" source="gTSn6SpjcyD0k9HgwN98-26" target="gTSn6SpjcyD0k9HgwN98-27">
          <mxGeometry relative="1" as="geometry" />
        </mxCell>
        <mxCell id="gTSn6SpjcyD0k9HgwN98-26" value="&lt;b style=&quot;color: rgb(0, 0, 0); font-size: 18px;&quot;&gt;Print sum&lt;/b&gt;" style="shape=parallelogram;perimeter=parallelogramPerimeter;whiteSpace=wrap;html=1;fixedSize=1;labelBackgroundColor=none;fillColor=#BC6C25;strokeColor=#DDA15E;fontColor=#FEFAE0;" vertex="1" parent="WIyWlLk6GJQsqaUBKTNV-1">
          <mxGeometry x="272" y="480" width="285" height="40" as="geometry" />
        </mxCell>
        <mxCell id="gTSn6SpjcyD0k9HgwN98-27" value="&lt;font style=&quot;font-size: 18px; color: light-dark(rgb(26, 64, 255), rgb(0, 0, 0));&quot;&gt;&lt;b&gt;Stop&lt;/b&gt;&lt;/font&gt;" style="rounded=1;whiteSpace=wrap;html=1;labelBackgroundColor=none;fillColor=#BC6C25;strokeColor=#DDA15E;fontColor=#FEFAE0;" vertex="1" parent="WIyWlLk6GJQsqaUBKTNV-1">
          <mxGeometry x="377" y="560" width="75" height="40" as="geometry" />
        </mxCell>
        <mxCell id="gTSn6SpjcyD0k9HgwN98-31" value="NO" style="text;html=1;align=center;verticalAlign=middle;resizable=0;points=[];autosize=1;strokeColor=none;fillColor=none;labelBackgroundColor=none;fontColor=#FEFAE0;" vertex="1" parent="WIyWlLk6GJQsqaUBKTNV-1">
          <mxGeometry x="411" y="358" width="40" height="30" as="geometry" />
        </mxCell>
        <mxCell id="gTSn6SpjcyD0k9HgwN98-32" value="YES" style="text;html=1;align=center;verticalAlign=middle;resizable=0;points=[];autosize=1;strokeColor=none;fillColor=none;labelBackgroundColor=none;fontColor=#FEFAE0;" vertex="1" parent="WIyWlLk6GJQsqaUBKTNV-1">
          <mxGeometry x="490" y="270" width="50" height="30" as="geometry" />
        </mxCell>
        <mxCell id="gTSn6SpjcyD0k9HgwN98-33" value="&lt;b style=&quot;color: rgb(0, 0, 0); font-size: 18px;&quot;&gt;Warning!&lt;/b&gt;" style="shape=parallelogram;perimeter=parallelogramPerimeter;whiteSpace=wrap;html=1;fixedSize=1;labelBackgroundColor=none;fillColor=#BC6C25;strokeColor=#DDA15E;fontColor=#FEFAE0;" vertex="1" parent="WIyWlLk6GJQsqaUBKTNV-1">
          <mxGeometry x="544" y="280" width="160" height="40" as="geometry" />
        </mxCell>
      </root>
    </mxGraphModel>
  </diagram>
</mxfile>
